<mxfile host="app.diagrams.net" agent="Mozilla/5.0 (Macintosh; Intel Mac OS X 10_15_7) AppleWebKit/537.36 (KHTML, like Gecko) Chrome/138.0.0.0 Safari/537.36" version="28.0.6">
  <diagram name="Page-1" id="a4GFqO8kmA5AT4FHELHn">
    <mxGraphModel dx="2646" dy="1720" grid="1" gridSize="10" guides="1" tooltips="1" connect="1" arrows="1" fold="1" page="1" pageScale="1" pageWidth="850" pageHeight="1100" math="0" shadow="0">
      <root>
        <mxCell id="0" />
        <mxCell id="1" parent="0" />
        <mxCell id="3Z3hgqcBZ3D1bga7gspu-10" value="" style="whiteSpace=wrap;html=1;aspect=fixed;" parent="1" vertex="1">
          <mxGeometry x="-970" y="120" width="440" height="440" as="geometry" />
        </mxCell>
        <mxCell id="qwiZKR4XrlvdcFTt5K6M-1" value="AWS Account - Number&amp;nbsp;012345678901" style="points=[[0,0],[0.25,0],[0.5,0],[0.75,0],[1,0],[1,0.25],[1,0.5],[1,0.75],[1,1],[0.75,1],[0.5,1],[0.25,1],[0,1],[0,0.75],[0,0.5],[0,0.25]];outlineConnect=0;gradientColor=none;html=1;whiteSpace=wrap;fontSize=12;fontStyle=0;container=1;pointerEvents=0;collapsible=0;recursiveResize=0;shape=mxgraph.aws4.group;grIcon=mxgraph.aws4.group_account;strokeColor=#CD2264;fillColor=none;verticalAlign=top;align=left;spacingLeft=30;fontColor=#CD2264;dashed=1;rounded=0;" parent="1" vertex="1">
          <mxGeometry x="-950" y="-700" width="1490" height="790" as="geometry" />
        </mxCell>
        <mxCell id="qwiZKR4XrlvdcFTt5K6M-5" value="VPC1 -&amp;nbsp;10.1.0.0/16" style="points=[[0,0],[0.25,0],[0.5,0],[0.75,0],[1,0],[1,0.25],[1,0.5],[1,0.75],[1,1],[0.75,1],[0.5,1],[0.25,1],[0,1],[0,0.75],[0,0.5],[0,0.25]];outlineConnect=0;gradientColor=none;html=1;whiteSpace=wrap;fontSize=12;fontStyle=0;container=1;pointerEvents=0;collapsible=0;recursiveResize=0;shape=mxgraph.aws4.group;grIcon=mxgraph.aws4.group_vpc2;strokeColor=#8C4FFF;fillColor=none;verticalAlign=top;align=left;spacingLeft=30;fontColor=#AAB7B8;dashed=0;rounded=0;" parent="qwiZKR4XrlvdcFTt5K6M-1" vertex="1">
          <mxGeometry x="50" y="70" width="990" height="660" as="geometry" />
        </mxCell>
        <mxCell id="qwiZKR4XrlvdcFTt5K6M-2" value="Region - us-east-1" style="sketch=0;outlineConnect=0;gradientColor=none;html=1;whiteSpace=wrap;fontSize=12;fontStyle=0;shape=mxgraph.aws4.group;grIcon=mxgraph.aws4.group_region;strokeColor=light-dark(#000000,#FFFFFF);fillColor=none;verticalAlign=top;align=left;spacingLeft=30;fontColor=#879196;dashed=1;rounded=0;" parent="qwiZKR4XrlvdcFTt5K6M-5" vertex="1">
          <mxGeometry x="-30" y="-40" width="1070" height="740" as="geometry" />
        </mxCell>
        <mxCell id="ShN_q-uIP7ZOxWAaOC0g-5" value="Internet Gateway" style="sketch=0;outlineConnect=0;fontColor=#232F3E;gradientColor=none;fillColor=#8C4FFF;strokeColor=none;dashed=0;verticalLabelPosition=bottom;verticalAlign=top;align=center;html=1;fontSize=12;fontStyle=0;aspect=fixed;pointerEvents=1;shape=mxgraph.aws4.internet_gateway;" parent="qwiZKR4XrlvdcFTt5K6M-5" vertex="1">
          <mxGeometry x="912" y="50" width="78" height="78" as="geometry" />
        </mxCell>
        <mxCell id="qwiZKR4XrlvdcFTt5K6M-11" value="Availability Zone -&amp;nbsp;&lt;strong data-end=&quot;447&quot; data-start=&quot;440&quot;&gt;AZ1 -&amp;nbsp;us-east-1a&lt;/strong&gt;" style="fillColor=none;strokeColor=#147EBA;dashed=1;verticalAlign=top;fontStyle=0;fontColor=#147EBA;whiteSpace=wrap;html=1;rounded=0;" parent="qwiZKR4XrlvdcFTt5K6M-1" vertex="1">
          <mxGeometry x="100" y="297" width="430" height="360" as="geometry" />
        </mxCell>
        <mxCell id="qwiZKR4XrlvdcFTt5K6M-12" value="Public subnet -&amp;nbsp;10.1.0.0/24" style="points=[[0,0],[0.25,0],[0.5,0],[0.75,0],[1,0],[1,0.25],[1,0.5],[1,0.75],[1,1],[0.75,1],[0.5,1],[0.25,1],[0,1],[0,0.75],[0,0.5],[0,0.25]];outlineConnect=0;gradientColor=none;html=1;whiteSpace=wrap;fontSize=12;fontStyle=0;container=1;pointerEvents=0;collapsible=0;recursiveResize=0;shape=mxgraph.aws4.group;grIcon=mxgraph.aws4.group_security_group;grStroke=0;strokeColor=#7AA116;fillColor=#F2F6E8;verticalAlign=top;align=left;spacingLeft=30;fontColor=#248814;dashed=0;rounded=0;" parent="qwiZKR4XrlvdcFTt5K6M-1" vertex="1">
          <mxGeometry x="135" y="337" width="375" height="130" as="geometry" />
        </mxCell>
        <mxCell id="ShN_q-uIP7ZOxWAaOC0g-14" style="edgeStyle=orthogonalEdgeStyle;rounded=0;orthogonalLoop=1;jettySize=auto;html=1;strokeColor=light-dark(#000000,#FFB570);" parent="qwiZKR4XrlvdcFTt5K6M-1" source="qwiZKR4XrlvdcFTt5K6M-14" target="ShN_q-uIP7ZOxWAaOC0g-8" edge="1">
          <mxGeometry relative="1" as="geometry" />
        </mxCell>
        <mxCell id="qwiZKR4XrlvdcFTt5K6M-14" value="Private subnet -&amp;nbsp;10.1.2.0/24" style="points=[[0,0],[0.25,0],[0.5,0],[0.75,0],[1,0],[1,0.25],[1,0.5],[1,0.75],[1,1],[0.75,1],[0.5,1],[0.25,1],[0,1],[0,0.75],[0,0.5],[0,0.25]];outlineConnect=0;gradientColor=none;html=1;whiteSpace=wrap;fontSize=12;fontStyle=0;container=1;pointerEvents=0;collapsible=0;recursiveResize=0;shape=mxgraph.aws4.group;grIcon=mxgraph.aws4.group_security_group;grStroke=0;strokeColor=#00A4A6;fillColor=#E6F6F7;verticalAlign=top;align=left;spacingLeft=30;fontColor=#147EBA;dashed=0;rounded=0;" parent="qwiZKR4XrlvdcFTt5K6M-1" vertex="1">
          <mxGeometry x="135" y="507" width="375" height="130" as="geometry" />
        </mxCell>
        <mxCell id="XV7sPWNHgL2EhcH8LY0z-16" value="Auto-scaling Group" style="sketch=0;points=[[0,0,0],[0.25,0,0],[0.5,0,0],[0.75,0,0],[1,0,0],[0,1,0],[0.25,1,0],[0.5,1,0],[0.75,1,0],[1,1,0],[0,0.25,0],[0,0.5,0],[0,0.75,0],[1,0.25,0],[1,0.5,0],[1,0.75,0]];outlineConnect=0;fontColor=#232F3E;fillColor=#ED7100;strokeColor=#ffffff;dashed=0;verticalLabelPosition=bottom;verticalAlign=top;align=center;html=1;fontSize=12;fontStyle=0;aspect=fixed;shape=mxgraph.aws4.resourceIcon;resIcon=mxgraph.aws4.auto_scaling2;" parent="qwiZKR4XrlvdcFTt5K6M-14" vertex="1">
          <mxGeometry x="215" y="41.10000000000002" width="47.8" height="47.8" as="geometry" />
        </mxCell>
        <mxCell id="qwiZKR4XrlvdcFTt5K6M-51" value="Availability Zone -&amp;nbsp;&lt;strong data-end=&quot;447&quot; data-start=&quot;440&quot;&gt;AZ2 -&amp;nbsp;us-east-1b&lt;/strong&gt;" style="fillColor=none;strokeColor=#147EBA;dashed=1;verticalAlign=top;fontStyle=0;fontColor=#147EBA;whiteSpace=wrap;html=1;rounded=0;" parent="qwiZKR4XrlvdcFTt5K6M-1" vertex="1">
          <mxGeometry x="570" y="297" width="430" height="360" as="geometry" />
        </mxCell>
        <mxCell id="qwiZKR4XrlvdcFTt5K6M-52" value="Public subnet -&amp;nbsp;10.1.1.0/24" style="points=[[0,0],[0.25,0],[0.5,0],[0.75,0],[1,0],[1,0.25],[1,0.5],[1,0.75],[1,1],[0.75,1],[0.5,1],[0.25,1],[0,1],[0,0.75],[0,0.5],[0,0.25]];outlineConnect=0;gradientColor=none;html=1;whiteSpace=wrap;fontSize=12;fontStyle=0;container=1;pointerEvents=0;collapsible=0;recursiveResize=0;shape=mxgraph.aws4.group;grIcon=mxgraph.aws4.group_security_group;grStroke=0;strokeColor=#7AA116;fillColor=#F2F6E8;verticalAlign=top;align=left;spacingLeft=30;fontColor=#248814;dashed=0;rounded=0;" parent="qwiZKR4XrlvdcFTt5K6M-1" vertex="1">
          <mxGeometry x="605" y="337" width="375" height="130" as="geometry" />
        </mxCell>
        <mxCell id="ShN_q-uIP7ZOxWAaOC0g-9" value="NAT Gateway" style="sketch=0;outlineConnect=0;fontColor=#232F3E;gradientColor=none;fillColor=#8C4FFF;strokeColor=none;dashed=0;verticalLabelPosition=bottom;verticalAlign=top;align=center;html=1;fontSize=12;fontStyle=0;aspect=fixed;pointerEvents=1;shape=mxgraph.aws4.nat_gateway;rounded=0;" parent="qwiZKR4XrlvdcFTt5K6M-52" vertex="1">
          <mxGeometry x="305" y="34" width="58" height="58" as="geometry" />
        </mxCell>
        <mxCell id="ShN_q-uIP7ZOxWAaOC0g-12" style="edgeStyle=orthogonalEdgeStyle;rounded=0;orthogonalLoop=1;jettySize=auto;html=1;strokeColor=light-dark(#000000,#FFB570);" parent="qwiZKR4XrlvdcFTt5K6M-1" source="qwiZKR4XrlvdcFTt5K6M-53" target="ShN_q-uIP7ZOxWAaOC0g-9" edge="1">
          <mxGeometry relative="1" as="geometry" />
        </mxCell>
        <mxCell id="qwiZKR4XrlvdcFTt5K6M-53" value="Private subnet -&amp;nbsp;10.1.3.0/24" style="points=[[0,0],[0.25,0],[0.5,0],[0.75,0],[1,0],[1,0.25],[1,0.5],[1,0.75],[1,1],[0.75,1],[0.5,1],[0.25,1],[0,1],[0,0.75],[0,0.5],[0,0.25]];outlineConnect=0;gradientColor=none;html=1;whiteSpace=wrap;fontSize=12;fontStyle=0;container=1;pointerEvents=0;collapsible=0;recursiveResize=0;shape=mxgraph.aws4.group;grIcon=mxgraph.aws4.group_security_group;grStroke=0;strokeColor=#00A4A6;fillColor=#E6F6F7;verticalAlign=top;align=left;spacingLeft=30;fontColor=#147EBA;dashed=0;rounded=0;" parent="qwiZKR4XrlvdcFTt5K6M-1" vertex="1">
          <mxGeometry x="605" y="507" width="375" height="130" as="geometry" />
        </mxCell>
        <mxCell id="ShN_q-uIP7ZOxWAaOC0g-7" style="edgeStyle=orthogonalEdgeStyle;rounded=0;orthogonalLoop=1;jettySize=auto;html=1;startArrow=classic;startFill=1;endArrow=classic;endFill=1;strokeColor=light-dark(#000000,#FFFFFF);" parent="qwiZKR4XrlvdcFTt5K6M-1" source="ShN_q-uIP7ZOxWAaOC0g-5" target="qwiZKR4XrlvdcFTt5K6M-52" edge="1">
          <mxGeometry relative="1" as="geometry">
            <Array as="points">
              <mxPoint x="550" y="160" />
              <mxPoint x="550" y="260" />
              <mxPoint x="792" y="260" />
            </Array>
          </mxGeometry>
        </mxCell>
        <mxCell id="ShN_q-uIP7ZOxWAaOC0g-6" style="edgeStyle=orthogonalEdgeStyle;rounded=0;orthogonalLoop=1;jettySize=auto;html=1;startArrow=classic;startFill=1;endArrow=classic;endFill=1;entryX=0.5;entryY=0;entryDx=0;entryDy=0;strokeColor=light-dark(#000000,#FFFFFF);" parent="qwiZKR4XrlvdcFTt5K6M-1" source="ShN_q-uIP7ZOxWAaOC0g-5" target="qwiZKR4XrlvdcFTt5K6M-12" edge="1">
          <mxGeometry relative="1" as="geometry">
            <mxPoint x="228" y="160" as="sourcePoint" />
            <mxPoint x="323" y="328" as="targetPoint" />
            <Array as="points">
              <mxPoint x="550" y="160" />
              <mxPoint x="550" y="260" />
              <mxPoint x="323" y="260" />
            </Array>
          </mxGeometry>
        </mxCell>
        <mxCell id="ShN_q-uIP7ZOxWAaOC0g-15" style="edgeStyle=orthogonalEdgeStyle;rounded=0;orthogonalLoop=1;jettySize=auto;html=1;strokeColor=light-dark(#000000,#FFB570);" parent="qwiZKR4XrlvdcFTt5K6M-1" source="ShN_q-uIP7ZOxWAaOC0g-8" target="ShN_q-uIP7ZOxWAaOC0g-5" edge="1">
          <mxGeometry relative="1" as="geometry">
            <Array as="points">
              <mxPoint x="459" y="240" />
              <mxPoint x="1001" y="240" />
            </Array>
          </mxGeometry>
        </mxCell>
        <mxCell id="ShN_q-uIP7ZOxWAaOC0g-8" value="NAT Gateway" style="sketch=0;outlineConnect=0;fontColor=#232F3E;gradientColor=none;fillColor=#8C4FFF;strokeColor=none;dashed=0;verticalLabelPosition=bottom;verticalAlign=top;align=center;html=1;fontSize=12;fontStyle=0;aspect=fixed;pointerEvents=1;shape=mxgraph.aws4.nat_gateway;rounded=0;" parent="qwiZKR4XrlvdcFTt5K6M-1" vertex="1">
          <mxGeometry x="430" y="366" width="58" height="58" as="geometry" />
        </mxCell>
        <mxCell id="ShN_q-uIP7ZOxWAaOC0g-13" style="edgeStyle=orthogonalEdgeStyle;rounded=0;orthogonalLoop=1;jettySize=auto;html=1;strokeColor=light-dark(#000000,#FFB570);" parent="qwiZKR4XrlvdcFTt5K6M-1" source="ShN_q-uIP7ZOxWAaOC0g-9" target="ShN_q-uIP7ZOxWAaOC0g-5" edge="1">
          <mxGeometry relative="1" as="geometry">
            <Array as="points">
              <mxPoint x="939" y="240" />
              <mxPoint x="1001" y="240" />
            </Array>
          </mxGeometry>
        </mxCell>
        <mxCell id="XV7sPWNHgL2EhcH8LY0z-8" value="" style="whiteSpace=wrap;html=1;aspect=fixed;fillColor=none;dashed=1;strokeColor=light-dark(#000000,#009900);" parent="qwiZKR4XrlvdcFTt5K6M-1" vertex="1">
          <mxGeometry x="1150" y="180" width="260" height="260" as="geometry" />
        </mxCell>
        <mxCell id="XV7sPWNHgL2EhcH8LY0z-9" value="S3" style="text;html=1;align=center;verticalAlign=middle;whiteSpace=wrap;rounded=0;fontColor=light-dark(#000000,#009900);" parent="qwiZKR4XrlvdcFTt5K6M-1" vertex="1">
          <mxGeometry x="1255" y="180" width="50" height="20" as="geometry" />
        </mxCell>
        <mxCell id="XV7sPWNHgL2EhcH8LY0z-17" value="Images" style="sketch=0;outlineConnect=0;fontColor=#232F3E;gradientColor=none;fillColor=#7AA116;strokeColor=none;dashed=0;verticalLabelPosition=bottom;verticalAlign=top;align=center;html=1;fontSize=12;fontStyle=0;aspect=fixed;pointerEvents=1;shape=mxgraph.aws4.bucket_with_objects;" parent="qwiZKR4XrlvdcFTt5K6M-1" vertex="1">
          <mxGeometry x="1180" y="229" width="75" height="78" as="geometry" />
        </mxCell>
        <mxCell id="XV7sPWNHgL2EhcH8LY0z-18" value="Logs" style="sketch=0;outlineConnect=0;fontColor=#232F3E;gradientColor=none;fillColor=#7AA116;strokeColor=none;dashed=0;verticalLabelPosition=bottom;verticalAlign=top;align=center;html=1;fontSize=12;fontStyle=0;aspect=fixed;pointerEvents=1;shape=mxgraph.aws4.bucket_with_objects;" parent="qwiZKR4XrlvdcFTt5K6M-1" vertex="1">
          <mxGeometry x="1300" y="298" width="75" height="78" as="geometry" />
        </mxCell>
        <mxCell id="XV7sPWNHgL2EhcH8LY0z-27" style="edgeStyle=orthogonalEdgeStyle;rounded=0;orthogonalLoop=1;jettySize=auto;html=1;startArrow=classic;startFill=1;endArrow=none;endFill=0;strokeColor=light-dark(#000000,#3399FF);" parent="qwiZKR4XrlvdcFTt5K6M-1" source="XV7sPWNHgL2EhcH8LY0z-15" target="ShN_q-uIP7ZOxWAaOC0g-5" edge="1">
          <mxGeometry relative="1" as="geometry">
            <Array as="points">
              <mxPoint x="180" y="190" />
            </Array>
          </mxGeometry>
        </mxCell>
        <mxCell id="XV7sPWNHgL2EhcH8LY0z-15" value="Aplication&lt;br&gt;Load Balancer" style="points=[];aspect=fixed;html=1;align=center;shadow=0;dashed=0;fillColor=#FF6A00;strokeColor=none;shape=mxgraph.alibaba_cloud.alb_application_load_balancer_01;labelPosition=center;verticalLabelPosition=bottom;verticalAlign=top;" parent="qwiZKR4XrlvdcFTt5K6M-1" vertex="1">
          <mxGeometry x="150" y="380" width="59.19" height="50.2" as="geometry" />
        </mxCell>
        <mxCell id="XV7sPWNHgL2EhcH8LY0z-25" style="edgeStyle=orthogonalEdgeStyle;rounded=0;orthogonalLoop=1;jettySize=auto;html=1;exitX=0.5;exitY=1;exitDx=0;exitDy=0;exitPerimeter=0;dashed=1;strokeColor=light-dark(#000000,#FFD966);" parent="qwiZKR4XrlvdcFTt5K6M-1" source="XV7sPWNHgL2EhcH8LY0z-11" target="XV7sPWNHgL2EhcH8LY0z-18" edge="1">
          <mxGeometry relative="1" as="geometry">
            <Array as="points">
              <mxPoint x="690" y="480" />
              <mxPoint x="1337" y="480" />
            </Array>
          </mxGeometry>
        </mxCell>
        <mxCell id="XV7sPWNHgL2EhcH8LY0z-11" value="EC2 - RedHat" style="sketch=0;points=[[0,0,0],[0.25,0,0],[0.5,0,0],[0.75,0,0],[1,0,0],[0,1,0],[0.25,1,0],[0.5,1,0],[0.75,1,0],[1,1,0],[0,0.25,0],[0,0.5,0],[0,0.75,0],[1,0.25,0],[1,0.5,0],[1,0.75,0]];outlineConnect=0;fontColor=#232F3E;fillColor=#ED7100;strokeColor=#ffffff;dashed=0;verticalLabelPosition=bottom;verticalAlign=top;align=center;html=1;fontSize=12;fontStyle=0;aspect=fixed;shape=mxgraph.aws4.resourceIcon;resIcon=mxgraph.aws4.ec2;" parent="qwiZKR4XrlvdcFTt5K6M-1" vertex="1">
          <mxGeometry x="670" y="390.2" width="40" height="40" as="geometry" />
        </mxCell>
        <mxCell id="XV7sPWNHgL2EhcH8LY0z-20" style="edgeStyle=orthogonalEdgeStyle;rounded=0;orthogonalLoop=1;jettySize=auto;html=1;entryX=0.25;entryY=0;entryDx=0;entryDy=0;entryPerimeter=0;strokeColor=light-dark(#000000,#3399FF);" parent="qwiZKR4XrlvdcFTt5K6M-1" source="XV7sPWNHgL2EhcH8LY0z-15" target="XV7sPWNHgL2EhcH8LY0z-16" edge="1">
          <mxGeometry relative="1" as="geometry">
            <Array as="points">
              <mxPoint x="362" y="410" />
            </Array>
          </mxGeometry>
        </mxCell>
        <mxCell id="XV7sPWNHgL2EhcH8LY0z-22" value="operates with" style="edgeStyle=orthogonalEdgeStyle;rounded=0;orthogonalLoop=1;jettySize=auto;html=1;exitX=0.75;exitY=0;exitDx=0;exitDy=0;exitPerimeter=0;entryX=0;entryY=0.5;entryDx=0;entryDy=0;entryPerimeter=0;dashed=1;" parent="qwiZKR4XrlvdcFTt5K6M-1" source="XV7sPWNHgL2EhcH8LY0z-16" target="XV7sPWNHgL2EhcH8LY0z-11" edge="1">
          <mxGeometry x="-0.2787" relative="1" as="geometry">
            <Array as="points">
              <mxPoint x="386" y="490" />
              <mxPoint x="550" y="490" />
              <mxPoint x="550" y="410" />
            </Array>
            <mxPoint as="offset" />
          </mxGeometry>
        </mxCell>
        <mxCell id="XV7sPWNHgL2EhcH8LY0z-23" style="edgeStyle=orthogonalEdgeStyle;rounded=0;orthogonalLoop=1;jettySize=auto;html=1;exitX=1;exitY=0.5;exitDx=0;exitDy=0;exitPerimeter=0;strokeColor=light-dark(#000000,#FFD966);dashed=1;" parent="qwiZKR4XrlvdcFTt5K6M-1" source="XV7sPWNHgL2EhcH8LY0z-16" target="XV7sPWNHgL2EhcH8LY0z-17" edge="1">
          <mxGeometry relative="1" as="geometry" />
        </mxCell>
        <mxCell id="ShN_q-uIP7ZOxWAaOC0g-11" style="edgeStyle=orthogonalEdgeStyle;rounded=0;orthogonalLoop=1;jettySize=auto;html=1;startArrow=classic;startFill=1;" parent="1" source="ShN_q-uIP7ZOxWAaOC0g-10" target="ShN_q-uIP7ZOxWAaOC0g-5" edge="1">
          <mxGeometry relative="1" as="geometry" />
        </mxCell>
        <mxCell id="ShN_q-uIP7ZOxWAaOC0g-10" value="Inter&lt;span style=&quot;background-color: light-dark(#ffffff, var(--ge-dark-color, #121212)); color: light-dark(rgb(0, 0, 0), rgb(255, 255, 255));&quot;&gt;net&lt;/span&gt;" style="image;aspect=fixed;perimeter=ellipsePerimeter;html=1;align=center;shadow=0;dashed=0;spacingTop=3;image=img/lib/active_directory/internet_cloud.svg;" parent="1" vertex="1">
          <mxGeometry x="-22.49000000000001" y="-850" width="126.98" height="80" as="geometry" />
        </mxCell>
        <mxCell id="ShN_q-uIP7ZOxWAaOC0g-16" value="&lt;font style=&quot;font-size: 18px;&quot;&gt;&lt;b&gt;References&lt;/b&gt;&lt;/font&gt;" style="text;html=1;align=left;verticalAlign=middle;resizable=0;points=[];autosize=1;strokeColor=none;fillColor=none;perimeterSpacing=0;" parent="1" vertex="1">
          <mxGeometry x="-950" y="130" width="120" height="40" as="geometry" />
        </mxCell>
        <mxCell id="ShN_q-uIP7ZOxWAaOC0g-17" value="&lt;div&gt;&lt;span style=&quot;font-size: 18px;&quot;&gt;Incoming/outgoing traffic&lt;/span&gt;&lt;/div&gt;" style="text;html=1;align=left;verticalAlign=middle;resizable=0;points=[];autosize=1;strokeColor=none;fillColor=none;" parent="1" vertex="1">
          <mxGeometry x="-950" y="180" width="220" height="40" as="geometry" />
        </mxCell>
        <mxCell id="ShN_q-uIP7ZOxWAaOC0g-18" value="&lt;div&gt;&lt;span style=&quot;font-size: 18px;&quot;&gt;Incoming traffic&lt;/span&gt;&lt;/div&gt;" style="text;html=1;align=left;verticalAlign=middle;resizable=0;points=[];autosize=1;strokeColor=none;fillColor=none;" parent="1" vertex="1">
          <mxGeometry x="-950" y="230" width="150" height="40" as="geometry" />
        </mxCell>
        <mxCell id="ShN_q-uIP7ZOxWAaOC0g-19" value="&lt;div&gt;&lt;span style=&quot;font-size: 18px;&quot;&gt;Outgoing traffic&lt;/span&gt;&lt;/div&gt;" style="text;html=1;align=left;verticalAlign=middle;resizable=0;points=[];autosize=1;strokeColor=none;fillColor=none;" parent="1" vertex="1">
          <mxGeometry x="-950" y="280" width="150" height="40" as="geometry" />
        </mxCell>
        <mxCell id="ShN_q-uIP7ZOxWAaOC0g-20" value="&lt;div&gt;&lt;span style=&quot;font-size: 18px;&quot;&gt;Access through the SG&lt;/span&gt;&lt;/div&gt;" style="text;html=1;align=left;verticalAlign=middle;resizable=0;points=[];autosize=1;strokeColor=none;fillColor=none;" parent="1" vertex="1">
          <mxGeometry x="-950" y="330" width="210" height="40" as="geometry" />
        </mxCell>
        <mxCell id="ShN_q-uIP7ZOxWAaOC0g-21" value="" style="edgeStyle=none;orthogonalLoop=1;jettySize=auto;html=1;rounded=0;startArrow=classic;startFill=1;" parent="1" edge="1">
          <mxGeometry width="100" relative="1" as="geometry">
            <mxPoint x="-690" y="199.47000000000003" as="sourcePoint" />
            <mxPoint x="-590" y="199.47000000000003" as="targetPoint" />
            <Array as="points" />
          </mxGeometry>
        </mxCell>
        <mxCell id="ShN_q-uIP7ZOxWAaOC0g-22" value="" style="edgeStyle=none;orthogonalLoop=1;jettySize=auto;html=1;rounded=0;fontColor=light-dark(#000000,#3399FF);strokeColor=light-dark(#000000,#3399FF);startArrow=classic;startFill=1;endArrow=none;endFill=0;" parent="1" edge="1">
          <mxGeometry width="100" relative="1" as="geometry">
            <mxPoint x="-690" y="249.47000000000003" as="sourcePoint" />
            <mxPoint x="-590" y="249.47000000000003" as="targetPoint" />
            <Array as="points" />
          </mxGeometry>
        </mxCell>
        <mxCell id="ShN_q-uIP7ZOxWAaOC0g-23" value="" style="edgeStyle=none;orthogonalLoop=1;jettySize=auto;html=1;rounded=0;strokeColor=light-dark(#000000,#FFB570);" parent="1" edge="1">
          <mxGeometry width="100" relative="1" as="geometry">
            <mxPoint x="-690" y="299.47" as="sourcePoint" />
            <mxPoint x="-590" y="299.47" as="targetPoint" />
            <Array as="points" />
          </mxGeometry>
        </mxCell>
        <mxCell id="XV7sPWNHgL2EhcH8LY0z-2" value="" style="edgeStyle=none;orthogonalLoop=1;jettySize=auto;html=1;rounded=0;strokeColor=light-dark(#000000,#FFD966);dashed=1;" parent="1" edge="1">
          <mxGeometry width="100" relative="1" as="geometry">
            <mxPoint x="-690" y="349.40999999999997" as="sourcePoint" />
            <mxPoint x="-590" y="349.40999999999997" as="targetPoint" />
            <Array as="points" />
          </mxGeometry>
        </mxCell>
        <mxCell id="3Z3hgqcBZ3D1bga7gspu-4" value="&lt;b style=&quot;font-weight:normal;&quot; id=&quot;docs-internal-guid-612e0544-7fff-3218-7241-0f2b50b31992&quot;&gt;&lt;h3 dir=&quot;ltr&quot; style=&quot;line-height:1.38;margin-top:14pt;margin-bottom:4pt;&quot;&gt;&lt;span style=&quot;font-size:13pt;font-family:Arial,sans-serif;color:#000000;background-color:transparent;font-weight:700;font-style:normal;font-variant:normal;text-decoration:none;vertical-align:baseline;white-space:pre;white-space:pre-wrap;&quot;&gt;Route Tables&lt;/span&gt;&lt;/h3&gt;&lt;p dir=&quot;ltr&quot; style=&quot;line-height:1.38;margin-top:12pt;margin-bottom:12pt;&quot;&gt;&lt;span style=&quot;font-size:11pt;font-family:Arial,sans-serif;color:#000000;background-color:transparent;font-weight:700;font-style:normal;font-variant:normal;text-decoration:none;vertical-align:baseline;white-space:pre;white-space:pre-wrap;&quot;&gt;Public Subnets (10.1.0.0/24 - 10.1.1.0/24):&lt;/span&gt;&lt;/p&gt;&lt;div dir=&quot;ltr&quot; style=&quot;margin-left:0pt;&quot; align=&quot;left&quot;&gt;&lt;table style=&quot;border:none;border-collapse:collapse;&quot;&gt;&lt;colgroup&gt;&lt;col width=&quot;147&quot;&gt;&lt;col width=&quot;199&quot;&gt;&lt;col width=&quot;255&quot;&gt;&lt;/colgroup&gt;&lt;tbody&gt;&lt;tr style=&quot;height:25.75pt&quot;&gt;&lt;td style=&quot;vertical-align:top;padding:5pt 5pt 5pt 5pt;overflow:hidden;overflow-wrap:break-word;&quot;&gt;&lt;p dir=&quot;ltr&quot; style=&quot;line-height:1.38;text-align: center;margin-top:0pt;margin-bottom:0pt;&quot;&gt;&lt;span style=&quot;font-size:11pt;font-family:Arial,sans-serif;color:#000000;background-color:transparent;font-weight:700;font-style:normal;font-variant:normal;text-decoration:none;vertical-align:baseline;white-space:pre;white-space:pre-wrap;&quot;&gt;Destination&lt;/span&gt;&lt;/p&gt;&lt;/td&gt;&lt;td style=&quot;vertical-align:top;padding:5pt 5pt 5pt 5pt;overflow:hidden;overflow-wrap:break-word;&quot;&gt;&lt;p dir=&quot;ltr&quot; style=&quot;line-height:1.38;text-align: center;margin-top:0pt;margin-bottom:0pt;&quot;&gt;&lt;span style=&quot;font-size:11pt;font-family:Arial,sans-serif;color:#000000;background-color:transparent;font-weight:700;font-style:normal;font-variant:normal;text-decoration:none;vertical-align:baseline;white-space:pre;white-space:pre-wrap;&quot;&gt;Target&lt;/span&gt;&lt;/p&gt;&lt;/td&gt;&lt;td style=&quot;vertical-align:top;padding:5pt 5pt 5pt 5pt;overflow:hidden;overflow-wrap:break-word;&quot;&gt;&lt;p dir=&quot;ltr&quot; style=&quot;line-height:1.38;text-align: center;margin-top:0pt;margin-bottom:0pt;&quot;&gt;&lt;span style=&quot;font-size:11pt;font-family:Arial,sans-serif;color:#000000;background-color:transparent;font-weight:700;font-style:normal;font-variant:normal;text-decoration:none;vertical-align:baseline;white-space:pre;white-space:pre-wrap;&quot;&gt;Description&lt;/span&gt;&lt;/p&gt;&lt;/td&gt;&lt;/tr&gt;&lt;tr style=&quot;height:25.75pt&quot;&gt;&lt;td style=&quot;vertical-align:top;padding:5pt 5pt 5pt 5pt;overflow:hidden;overflow-wrap:break-word;&quot;&gt;&lt;p dir=&quot;ltr&quot; style=&quot;line-height:1.38;margin-top:0pt;margin-bottom:0pt;&quot;&gt;&lt;span style=&quot;font-size:11pt;font-family:Arial,sans-serif;color:#000000;background-color:transparent;font-weight:400;font-style:normal;font-variant:normal;text-decoration:none;vertical-align:baseline;white-space:pre;white-space:pre-wrap;&quot;&gt;0.0.0.0/0&lt;/span&gt;&lt;/p&gt;&lt;/td&gt;&lt;td style=&quot;vertical-align:top;padding:5pt 5pt 5pt 5pt;overflow:hidden;overflow-wrap:break-word;&quot;&gt;&lt;p dir=&quot;ltr&quot; style=&quot;line-height:1.38;margin-top:0pt;margin-bottom:0pt;&quot;&gt;&lt;span style=&quot;font-size:11pt;font-family:Arial,sans-serif;color:#000000;background-color:transparent;font-weight:400;font-style:normal;font-variant:normal;text-decoration:none;vertical-align:baseline;white-space:pre;white-space:pre-wrap;&quot;&gt;Internet Gateway&lt;/span&gt;&lt;/p&gt;&lt;/td&gt;&lt;td style=&quot;vertical-align:top;padding:5pt 5pt 5pt 5pt;overflow:hidden;overflow-wrap:break-word;&quot;&gt;&lt;p dir=&quot;ltr&quot; style=&quot;line-height:1.38;margin-top:0pt;margin-bottom:0pt;&quot;&gt;&lt;span style=&quot;font-size:11pt;font-family:Arial,sans-serif;color:#000000;background-color:transparent;font-weight:400;font-style:normal;font-variant:normal;text-decoration:none;vertical-align:baseline;white-space:pre;white-space:pre-wrap;&quot;&gt;Traffic to the Internet&lt;/span&gt;&lt;/p&gt;&lt;/td&gt;&lt;/tr&gt;&lt;tr style=&quot;height:25.75pt&quot;&gt;&lt;td style=&quot;vertical-align:top;padding:5pt 5pt 5pt 5pt;overflow:hidden;overflow-wrap:break-word;&quot;&gt;&lt;p dir=&quot;ltr&quot; style=&quot;line-height:1.38;margin-top:0pt;margin-bottom:0pt;&quot;&gt;&lt;span style=&quot;font-size:11pt;font-family:Arial,sans-serif;color:#000000;background-color:transparent;font-weight:400;font-style:normal;font-variant:normal;text-decoration:none;vertical-align:baseline;white-space:pre;white-space:pre-wrap;&quot;&gt;10.1.0.0/16&lt;/span&gt;&lt;/p&gt;&lt;/td&gt;&lt;td style=&quot;vertical-align:top;padding:5pt 5pt 5pt 5pt;overflow:hidden;overflow-wrap:break-word;&quot;&gt;&lt;p dir=&quot;ltr&quot; style=&quot;line-height:1.38;margin-top:0pt;margin-bottom:0pt;&quot;&gt;&lt;span style=&quot;font-size:11pt;font-family:Arial,sans-serif;color:#000000;background-color:transparent;font-weight:400;font-style:normal;font-variant:normal;text-decoration:none;vertical-align:baseline;white-space:pre;white-space:pre-wrap;&quot;&gt;local&lt;/span&gt;&lt;/p&gt;&lt;/td&gt;&lt;td style=&quot;vertical-align:top;padding:5pt 5pt 5pt 5pt;overflow:hidden;overflow-wrap:break-word;&quot;&gt;&lt;p dir=&quot;ltr&quot; style=&quot;line-height:1.38;margin-top:0pt;margin-bottom:0pt;&quot;&gt;&lt;span style=&quot;font-size:11pt;font-family:Arial,sans-serif;color:#000000;background-color:transparent;font-weight:400;font-style:normal;font-variant:normal;text-decoration:none;vertical-align:baseline;white-space:pre;white-space:pre-wrap;&quot;&gt;Traffic within the VPC&lt;/span&gt;&lt;/p&gt;&lt;/td&gt;&lt;/tr&gt;&lt;/tbody&gt;&lt;/table&gt;&lt;/div&gt;&lt;p dir=&quot;ltr&quot; style=&quot;line-height:1.38;margin-top:12pt;margin-bottom:12pt;&quot;&gt;&lt;span style=&quot;font-size:11pt;font-family:Arial,sans-serif;color:#000000;background-color:transparent;font-weight:700;font-style:normal;font-variant:normal;text-decoration:none;vertical-align:baseline;white-space:pre;white-space:pre-wrap;&quot;&gt;Private Subnets (10.1.2.0/24 - 10.1.3.0/24):&lt;/span&gt;&lt;/p&gt;&lt;div dir=&quot;ltr&quot; style=&quot;margin-left:0pt;&quot; align=&quot;left&quot;&gt;&lt;table style=&quot;border:none;border-collapse:collapse;&quot;&gt;&lt;colgroup&gt;&lt;col width=&quot;113&quot;&gt;&lt;col width=&quot;129&quot;&gt;&lt;col width=&quot;372&quot;&gt;&lt;/colgroup&gt;&lt;tbody&gt;&lt;tr style=&quot;height:24.75pt&quot;&gt;&lt;td style=&quot;vertical-align:top;padding:5pt 5pt 5pt 5pt;overflow:hidden;overflow-wrap:break-word;&quot;&gt;&lt;p dir=&quot;ltr&quot; style=&quot;line-height:1.38;text-align: center;margin-top:0pt;margin-bottom:0pt;&quot;&gt;&lt;span style=&quot;font-size:11pt;font-family:Arial,sans-serif;color:#000000;background-color:transparent;font-weight:700;font-style:normal;font-variant:normal;text-decoration:none;vertical-align:baseline;white-space:pre;white-space:pre-wrap;&quot;&gt;Destination&lt;/span&gt;&lt;/p&gt;&lt;/td&gt;&lt;td style=&quot;vertical-align:top;padding:5pt 5pt 5pt 5pt;overflow:hidden;overflow-wrap:break-word;&quot;&gt;&lt;p dir=&quot;ltr&quot; style=&quot;line-height:1.38;text-align: center;margin-top:0pt;margin-bottom:0pt;&quot;&gt;&lt;span style=&quot;font-size:11pt;font-family:Arial,sans-serif;color:#000000;background-color:transparent;font-weight:700;font-style:normal;font-variant:normal;text-decoration:none;vertical-align:baseline;white-space:pre;white-space:pre-wrap;&quot;&gt;Target&lt;/span&gt;&lt;/p&gt;&lt;/td&gt;&lt;td style=&quot;vertical-align:top;padding:5pt 5pt 5pt 5pt;overflow:hidden;overflow-wrap:break-word;&quot;&gt;&lt;p dir=&quot;ltr&quot; style=&quot;line-height:1.38;text-align: center;margin-top:0pt;margin-bottom:0pt;&quot;&gt;&lt;span style=&quot;font-size:11pt;font-family:Arial,sans-serif;color:#000000;background-color:transparent;font-weight:700;font-style:normal;font-variant:normal;text-decoration:none;vertical-align:baseline;white-space:pre;white-space:pre-wrap;&quot;&gt;Description&lt;/span&gt;&lt;/p&gt;&lt;/td&gt;&lt;/tr&gt;&lt;tr style=&quot;height:25.75pt&quot;&gt;&lt;td style=&quot;vertical-align:top;padding:5pt 5pt 5pt 5pt;overflow:hidden;overflow-wrap:break-word;&quot;&gt;&lt;p dir=&quot;ltr&quot; style=&quot;line-height:1.38;margin-top:0pt;margin-bottom:0pt;&quot;&gt;&lt;span style=&quot;font-size:11pt;font-family:Arial,sans-serif;color:#000000;background-color:transparent;font-weight:400;font-style:normal;font-variant:normal;text-decoration:none;vertical-align:baseline;white-space:pre;white-space:pre-wrap;&quot;&gt;0.0.0.0/0&lt;/span&gt;&lt;/p&gt;&lt;/td&gt;&lt;td style=&quot;vertical-align:top;padding:5pt 5pt 5pt 5pt;overflow:hidden;overflow-wrap:break-word;&quot;&gt;&lt;p dir=&quot;ltr&quot; style=&quot;line-height:1.38;margin-top:0pt;margin-bottom:0pt;&quot;&gt;&lt;span style=&quot;font-size:11pt;font-family:Arial,sans-serif;color:#000000;background-color:transparent;font-weight:400;font-style:normal;font-variant:normal;text-decoration:none;vertical-align:baseline;white-space:pre;white-space:pre-wrap;&quot;&gt;NAT Gateway&lt;/span&gt;&lt;/p&gt;&lt;/td&gt;&lt;td style=&quot;vertical-align:top;padding:5pt 5pt 5pt 5pt;overflow:hidden;overflow-wrap:break-word;&quot;&gt;&lt;p dir=&quot;ltr&quot; style=&quot;line-height:1.38;margin-top:0pt;margin-bottom:0pt;&quot;&gt;&lt;span style=&quot;font-size:11pt;font-family:Arial,sans-serif;color:#000000;background-color:transparent;font-weight:400;font-style:normal;font-variant:normal;text-decoration:none;vertical-align:baseline;white-space:pre;white-space:pre-wrap;&quot;&gt;Internet traffic goes out via the NAT Gateway&lt;/span&gt;&lt;/p&gt;&lt;/td&gt;&lt;/tr&gt;&lt;tr style=&quot;height:25.75pt&quot;&gt;&lt;td style=&quot;vertical-align:top;padding:5pt 5pt 5pt 5pt;overflow:hidden;overflow-wrap:break-word;&quot;&gt;&lt;p dir=&quot;ltr&quot; style=&quot;line-height:1.38;margin-top:0pt;margin-bottom:0pt;&quot;&gt;&lt;span style=&quot;font-size:11pt;font-family:Arial,sans-serif;color:#000000;background-color:transparent;font-weight:400;font-style:normal;font-variant:normal;text-decoration:none;vertical-align:baseline;white-space:pre;white-space:pre-wrap;&quot;&gt;10.1.0.0/16&lt;/span&gt;&lt;/p&gt;&lt;/td&gt;&lt;td style=&quot;vertical-align:top;padding:5pt 5pt 5pt 5pt;overflow:hidden;overflow-wrap:break-word;&quot;&gt;&lt;p dir=&quot;ltr&quot; style=&quot;line-height:1.38;margin-top:0pt;margin-bottom:0pt;&quot;&gt;&lt;span style=&quot;font-size:11pt;font-family:Arial,sans-serif;color:#000000;background-color:transparent;font-weight:400;font-style:normal;font-variant:normal;text-decoration:none;vertical-align:baseline;white-space:pre;white-space:pre-wrap;&quot;&gt;local&lt;/span&gt;&lt;/p&gt;&lt;/td&gt;&lt;td style=&quot;vertical-align:top;padding:5pt 5pt 5pt 5pt;overflow:hidden;overflow-wrap:break-word;&quot;&gt;&lt;p dir=&quot;ltr&quot; style=&quot;line-height:1.38;margin-top:0pt;margin-bottom:0pt;&quot;&gt;&lt;span style=&quot;font-size:11pt;font-family:Arial,sans-serif;color:#000000;background-color:transparent;font-weight:400;font-style:normal;font-variant:normal;text-decoration:none;vertical-align:baseline;white-space:pre;white-space:pre-wrap;&quot;&gt;Traffic within the VPC&lt;/span&gt;&lt;/p&gt;&lt;/td&gt;&lt;/tr&gt;&lt;/tbody&gt;&lt;/table&gt;&lt;/div&gt;&lt;br&gt;&lt;/b&gt;" style="text;whiteSpace=wrap;html=1;fillColor=default;" parent="1" vertex="1">
          <mxGeometry x="-510" y="145" width="560" height="410" as="geometry" />
        </mxCell>
        <mxCell id="3Z3hgqcBZ3D1bga7gspu-5" value="&lt;b style=&quot;font-weight:normal;&quot; id=&quot;docs-internal-guid-b52970cb-7fff-951f-2421-3b26294c4c9f&quot;&gt;&lt;h3 dir=&quot;ltr&quot; style=&quot;line-height:1.38;margin-top:14pt;margin-bottom:4pt;&quot;&gt;&lt;span style=&quot;font-size:13pt;font-family:Arial,sans-serif;color:#000000;background-color:transparent;font-weight:700;font-style:normal;font-variant:normal;text-decoration:none;vertical-align:baseline;white-space:pre;white-space:pre-wrap;&quot;&gt;S3 Buckets&lt;/span&gt;&lt;/h3&gt;&lt;p dir=&quot;ltr&quot; style=&quot;line-height:1.38;margin-top:12pt;margin-bottom:12pt;&quot;&gt;&lt;span style=&quot;font-size:11pt;font-family:Arial,sans-serif;color:#000000;background-color:transparent;font-weight:700;font-style:normal;font-variant:normal;text-decoration:none;vertical-align:baseline;white-space:pre;white-space:pre-wrap;&quot;&gt;Bucket “images”:&lt;/span&gt;&lt;/p&gt;&lt;ul style=&quot;margin-top:0;margin-bottom:0;padding-inline-start:48px;&quot;&gt;&lt;li dir=&quot;ltr&quot; style=&quot;list-style-type:disc;font-size:11pt;font-family:Arial,sans-serif;color:#000000;background-color:transparent;font-weight:400;font-style:normal;font-variant:normal;text-decoration:none;vertical-align:baseline;white-space:pre;&quot; aria-level=&quot;1&quot;&gt;&lt;p dir=&quot;ltr&quot; style=&quot;line-height:1.38;margin-top:12pt;margin-bottom:0pt;&quot; role=&quot;presentation&quot;&gt;&lt;span style=&quot;font-size:11pt;font-family:Arial,sans-serif;color:#000000;background-color:transparent;font-weight:400;font-style:normal;font-variant:normal;text-decoration:none;vertical-align:baseline;white-space:pre;white-space:pre-wrap;&quot;&gt;Folder &lt;/span&gt;&lt;span style=&quot;font-size:11pt;font-family:&#39;Roboto Mono&#39;,monospace;color:#188038;background-color:transparent;font-weight:400;font-style:normal;font-variant:normal;text-decoration:none;vertical-align:baseline;white-space:pre;white-space:pre-wrap;&quot;&gt;archive/&lt;/span&gt;&lt;span style=&quot;font-size:11pt;font-family:&#39;Roboto Mono&#39;,monospace;color:#188038;background-color:transparent;font-weight:400;font-style:normal;font-variant:normal;text-decoration:none;vertical-align:baseline;white-space:pre;white-space:pre-wrap;&quot;&gt;&lt;br&gt;&lt;br&gt;&lt;/span&gt;&lt;/p&gt;&lt;/li&gt;&lt;li dir=&quot;ltr&quot; style=&quot;list-style-type:disc;font-size:11pt;font-family:Arial,sans-serif;color:#000000;background-color:transparent;font-weight:400;font-style:normal;font-variant:normal;text-decoration:none;vertical-align:baseline;white-space:pre;&quot; aria-level=&quot;1&quot;&gt;&lt;p dir=&quot;ltr&quot; style=&quot;line-height:1.38;margin-top:0pt;margin-bottom:0pt;&quot; role=&quot;presentation&quot;&gt;&lt;span style=&quot;font-size:11pt;font-family:Arial,sans-serif;color:#000000;background-color:transparent;font-weight:400;font-style:normal;font-variant:normal;text-decoration:none;vertical-align:baseline;white-space:pre;white-space:pre-wrap;&quot;&gt;Folder &lt;/span&gt;&lt;span style=&quot;font-size:11pt;font-family:&#39;Roboto Mono&#39;,monospace;color:#188038;background-color:transparent;font-weight:400;font-style:normal;font-variant:normal;text-decoration:none;vertical-align:baseline;white-space:pre;white-space:pre-wrap;&quot;&gt;memes/&lt;/span&gt;&lt;span style=&quot;font-size:11pt;font-family:&#39;Roboto Mono&#39;,monospace;color:#188038;background-color:transparent;font-weight:400;font-style:normal;font-variant:normal;text-decoration:none;vertical-align:baseline;white-space:pre;white-space:pre-wrap;&quot;&gt;&lt;br&gt;&lt;br&gt;&lt;/span&gt;&lt;/p&gt;&lt;/li&gt;&lt;ul style=&quot;margin-top:0;margin-bottom:0;padding-inline-start:48px;&quot;&gt;&lt;li dir=&quot;ltr&quot; style=&quot;list-style-type:circle;font-size:11pt;font-family:Arial,sans-serif;color:#000000;background-color:transparent;font-weight:400;font-style:normal;font-variant:normal;text-decoration:none;vertical-align:baseline;white-space:pre;&quot; aria-level=&quot;2&quot;&gt;&lt;p dir=&quot;ltr&quot; style=&quot;line-height:1.38;margin-top:0pt;margin-bottom:12pt;&quot; role=&quot;presentation&quot;&gt;&lt;span style=&quot;font-size:11pt;font-family:Arial,sans-serif;color:#000000;background-color:transparent;font-weight:400;font-style:italic;font-variant:normal;text-decoration:none;vertical-align:baseline;white-space:pre;white-space:pre-wrap;&quot;&gt;Lifecycle policy&lt;/span&gt;&lt;span style=&quot;font-size:11pt;font-family:Arial,sans-serif;color:#000000;background-color:transparent;font-weight:400;font-style:normal;font-variant:normal;text-decoration:none;vertical-align:baseline;white-space:pre;white-space:pre-wrap;&quot;&gt;: Move objects older than 90 days to Glacier.&lt;/span&gt;&lt;span style=&quot;font-size:11pt;font-family:Arial,sans-serif;color:#000000;background-color:transparent;font-weight:400;font-style:normal;font-variant:normal;text-decoration:none;vertical-align:baseline;white-space:pre;white-space:pre-wrap;&quot;&gt;&lt;br&gt;&lt;br&gt;&lt;/span&gt;&lt;/p&gt;&lt;/li&gt;&lt;/ul&gt;&lt;/ul&gt;&lt;p dir=&quot;ltr&quot; style=&quot;line-height:1.38;margin-top:12pt;margin-bottom:12pt;&quot;&gt;&lt;span style=&quot;font-size:11pt;font-family:Arial,sans-serif;color:#000000;background-color:transparent;font-weight:700;font-style:normal;font-variant:normal;text-decoration:none;vertical-align:baseline;white-space:pre;white-space:pre-wrap;&quot;&gt;Bucket “logs”:&lt;/span&gt;&lt;/p&gt;&lt;ul style=&quot;margin-top:0;margin-bottom:0;padding-inline-start:48px;&quot;&gt;&lt;li dir=&quot;ltr&quot; style=&quot;list-style-type:disc;font-size:11pt;font-family:Arial,sans-serif;color:#000000;background-color:transparent;font-weight:400;font-style:normal;font-variant:normal;text-decoration:none;vertical-align:baseline;white-space:pre;&quot; aria-level=&quot;1&quot;&gt;&lt;p dir=&quot;ltr&quot; style=&quot;line-height:1.38;margin-top:12pt;margin-bottom:0pt;&quot; role=&quot;presentation&quot;&gt;&lt;span style=&quot;font-size:11pt;font-family:Arial,sans-serif;color:#000000;background-color:transparent;font-weight:400;font-style:normal;font-variant:normal;text-decoration:none;vertical-align:baseline;white-space:pre;white-space:pre-wrap;&quot;&gt;Folder &lt;/span&gt;&lt;span style=&quot;font-size:11pt;font-family:&#39;Roboto Mono&#39;,monospace;color:#188038;background-color:transparent;font-weight:400;font-style:normal;font-variant:normal;text-decoration:none;vertical-align:baseline;white-space:pre;white-space:pre-wrap;&quot;&gt;active/&lt;/span&gt;&lt;span style=&quot;font-size:11pt;font-family:&#39;Roboto Mono&#39;,monospace;color:#188038;background-color:transparent;font-weight:400;font-style:normal;font-variant:normal;text-decoration:none;vertical-align:baseline;white-space:pre;white-space:pre-wrap;&quot;&gt;&lt;br&gt;&lt;br&gt;&lt;/span&gt;&lt;/p&gt;&lt;/li&gt;&lt;ul style=&quot;margin-top:0;margin-bottom:0;padding-inline-start:48px;&quot;&gt;&lt;li dir=&quot;ltr&quot; style=&quot;list-style-type:circle;font-size:11pt;font-family:Arial,sans-serif;color:#000000;background-color:transparent;font-weight:400;font-style:normal;font-variant:normal;text-decoration:none;vertical-align:baseline;white-space:pre;&quot; aria-level=&quot;2&quot;&gt;&lt;p dir=&quot;ltr&quot; style=&quot;line-height:1.38;margin-top:0pt;margin-bottom:0pt;&quot; role=&quot;presentation&quot;&gt;&lt;span style=&quot;font-size:11pt;font-family:Arial,sans-serif;color:#000000;background-color:transparent;font-weight:400;font-style:italic;font-variant:normal;text-decoration:none;vertical-align:baseline;white-space:pre;white-space:pre-wrap;&quot;&gt;Lifecycle policy&lt;/span&gt;&lt;span style=&quot;font-size:11pt;font-family:Arial,sans-serif;color:#000000;background-color:transparent;font-weight:400;font-style:normal;font-variant:normal;text-decoration:none;vertical-align:baseline;white-space:pre;white-space:pre-wrap;&quot;&gt;: Move objects older than 90 days to Glacier.&lt;/span&gt;&lt;span style=&quot;font-size:11pt;font-family:Arial,sans-serif;color:#000000;background-color:transparent;font-weight:400;font-style:normal;font-variant:normal;text-decoration:none;vertical-align:baseline;white-space:pre;white-space:pre-wrap;&quot;&gt;&lt;br&gt;&lt;br&gt;&lt;/span&gt;&lt;/p&gt;&lt;/li&gt;&lt;/ul&gt;&lt;li dir=&quot;ltr&quot; style=&quot;list-style-type:disc;font-size:11pt;font-family:Arial,sans-serif;color:#000000;background-color:transparent;font-weight:400;font-style:normal;font-variant:normal;text-decoration:none;vertical-align:baseline;white-space:pre;&quot; aria-level=&quot;1&quot;&gt;&lt;p dir=&quot;ltr&quot; style=&quot;line-height:1.38;margin-top:0pt;margin-bottom:0pt;&quot; role=&quot;presentation&quot;&gt;&lt;span style=&quot;font-size:11pt;font-family:Arial,sans-serif;color:#000000;background-color:transparent;font-weight:400;font-style:normal;font-variant:normal;text-decoration:none;vertical-align:baseline;white-space:pre;white-space:pre-wrap;&quot;&gt;Folder &lt;/span&gt;&lt;span style=&quot;font-size:11pt;font-family:&#39;Roboto Mono&#39;,monospace;color:#188038;background-color:transparent;font-weight:400;font-style:normal;font-variant:normal;text-decoration:none;vertical-align:baseline;white-space:pre;white-space:pre-wrap;&quot;&gt;inactive/&lt;/span&gt;&lt;span style=&quot;font-size:11pt;font-family:&#39;Roboto Mono&#39;,monospace;color:#188038;background-color:transparent;font-weight:400;font-style:normal;font-variant:normal;text-decoration:none;vertical-align:baseline;white-space:pre;white-space:pre-wrap;&quot;&gt;&lt;br&gt;&lt;br&gt;&lt;/span&gt;&lt;/p&gt;&lt;/li&gt;&lt;ul style=&quot;margin-top:0;margin-bottom:0;padding-inline-start:48px;&quot;&gt;&lt;li dir=&quot;ltr&quot; style=&quot;list-style-type:circle;font-size:11pt;font-family:Arial,sans-serif;color:#000000;background-color:transparent;font-weight:400;font-style:normal;font-variant:normal;text-decoration:none;vertical-align:baseline;white-space:pre;&quot; aria-level=&quot;2&quot;&gt;&lt;p dir=&quot;ltr&quot; style=&quot;line-height:1.38;margin-top:0pt;margin-bottom:12pt;&quot; role=&quot;presentation&quot;&gt;&lt;span style=&quot;font-size:11pt;font-family:Arial,sans-serif;color:#000000;background-color:transparent;font-weight:400;font-style:italic;font-variant:normal;text-decoration:none;vertical-align:baseline;white-space:pre;white-space:pre-wrap;&quot;&gt;Lifecycle policy&lt;/span&gt;&lt;span style=&quot;font-size:11pt;font-family:Arial,sans-serif;color:#000000;background-color:transparent;font-weight:400;font-style:normal;font-variant:normal;text-decoration:none;vertical-align:baseline;white-space:pre;white-space:pre-wrap;&quot;&gt;: Delete objects older than 90 days.&lt;/span&gt;&lt;/p&gt;&lt;/li&gt;&lt;/ul&gt;&lt;/ul&gt;&lt;br&gt;&lt;/b&gt;" style="text;whiteSpace=wrap;html=1;fillColor=default;" parent="1" vertex="1">
          <mxGeometry x="-620" y="600" width="520" height="460" as="geometry" />
        </mxCell>
        <mxCell id="3Z3hgqcBZ3D1bga7gspu-6" value="&lt;b style=&quot;font-weight:normal;&quot; id=&quot;docs-internal-guid-a7c5fbb0-7fff-ca69-e888-1b289b7f1b88&quot;&gt;&lt;h3 dir=&quot;ltr&quot; style=&quot;line-height:1.38;margin-top:14pt;margin-bottom:4pt;&quot;&gt;&lt;span style=&quot;font-size:13pt;font-family:Arial,sans-serif;color:#000000;background-color:transparent;font-weight:700;font-style:normal;font-variant:normal;text-decoration:none;vertical-align:baseline;white-space:pre;white-space:pre-wrap;&quot;&gt;Security Groups&lt;/span&gt;&lt;/h3&gt;&lt;ul style=&quot;margin-top:0;margin-bottom:0;padding-inline-start:48px;&quot;&gt;&lt;li dir=&quot;ltr&quot; style=&quot;list-style-type:disc;font-size:11pt;font-family:Arial,sans-serif;color:#000000;background-color:transparent;font-weight:400;font-style:normal;font-variant:normal;text-decoration:none;vertical-align:baseline;white-space:pre;&quot; aria-level=&quot;1&quot;&gt;&lt;p dir=&quot;ltr&quot; style=&quot;line-height:1.38;margin-top:12pt;margin-bottom:0pt;&quot; role=&quot;presentation&quot;&gt;&lt;span style=&quot;font-size:11pt;font-family:Arial,sans-serif;color:#000000;background-color:transparent;font-weight:700;font-style:normal;font-variant:normal;text-decoration:none;vertical-align:baseline;white-space:pre;white-space:pre-wrap;&quot;&gt;Security Group (ALB):&lt;/span&gt;&lt;span style=&quot;font-size:11pt;font-family:Arial,sans-serif;color:#000000;background-color:transparent;font-weight:700;font-style:normal;font-variant:normal;text-decoration:none;vertical-align:baseline;white-space:pre;white-space:pre-wrap;&quot;&gt;&lt;br&gt;&lt;/span&gt;&lt;span style=&quot;font-size:11pt;font-family:Arial,sans-serif;color:#000000;background-color:transparent;font-weight:400;font-style:normal;font-variant:normal;text-decoration:none;vertical-align:baseline;white-space:pre;white-space:pre-wrap;&quot;&gt; Allows incoming HTTP traffic (port 80) from the Internet.&lt;/span&gt;&lt;span style=&quot;font-size:11pt;font-family:Arial,sans-serif;color:#000000;background-color:transparent;font-weight:400;font-style:normal;font-variant:normal;text-decoration:none;vertical-align:baseline;white-space:pre;white-space:pre-wrap;&quot;&gt;&lt;br&gt;&lt;br&gt;&lt;/span&gt;&lt;/p&gt;&lt;/li&gt;&lt;li dir=&quot;ltr&quot; style=&quot;list-style-type:disc;font-size:11pt;font-family:Arial,sans-serif;color:#000000;background-color:transparent;font-weight:400;font-style:normal;font-variant:normal;text-decoration:none;vertical-align:baseline;white-space:pre;&quot; aria-level=&quot;1&quot;&gt;&lt;p dir=&quot;ltr&quot; style=&quot;line-height:1.38;margin-top:0pt;margin-bottom:0pt;&quot; role=&quot;presentation&quot;&gt;&lt;span style=&quot;font-size:11pt;font-family:Arial,sans-serif;color:#000000;background-color:transparent;font-weight:700;font-style:normal;font-variant:normal;text-decoration:none;vertical-align:baseline;white-space:pre;white-space:pre-wrap;&quot;&gt;Security Group (ASG instances):&lt;/span&gt;&lt;span style=&quot;font-size:11pt;font-family:Arial,sans-serif;color:#000000;background-color:transparent;font-weight:700;font-style:normal;font-variant:normal;text-decoration:none;vertical-align:baseline;white-space:pre;white-space:pre-wrap;&quot;&gt;&lt;br&gt;&lt;/span&gt;&lt;span style=&quot;font-size:11pt;font-family:Arial,sans-serif;color:#000000;background-color:transparent;font-weight:400;font-style:normal;font-variant:normal;text-decoration:none;vertical-align:baseline;white-space:pre;white-space:pre-wrap;&quot;&gt; Allows incoming traffic on port 443 &lt;/span&gt;&lt;span style=&quot;font-size:11pt;font-family:Arial,sans-serif;color:#000000;background-color:transparent;font-weight:400;font-style:italic;font-variant:normal;text-decoration:none;vertical-align:baseline;white-space:pre;white-space:pre-wrap;&quot;&gt;only&lt;/span&gt;&lt;span style=&quot;font-size:11pt;font-family:Arial,sans-serif;color:#000000;background-color:transparent;font-weight:400;font-style:normal;font-variant:normal;text-decoration:none;vertical-align:baseline;white-space:pre;white-space:pre-wrap;&quot;&gt; from the ALB.&lt;/span&gt;&lt;span style=&quot;font-size:11pt;font-family:Arial,sans-serif;color:#000000;background-color:transparent;font-weight:400;font-style:normal;font-variant:normal;text-decoration:none;vertical-align:baseline;white-space:pre;white-space:pre-wrap;&quot;&gt;&lt;br&gt;&lt;br&gt;&lt;/span&gt;&lt;/p&gt;&lt;/li&gt;&lt;li dir=&quot;ltr&quot; style=&quot;list-style-type:disc;font-size:11pt;font-family:Arial,sans-serif;color:#000000;background-color:transparent;font-weight:400;font-style:normal;font-variant:normal;text-decoration:none;vertical-align:baseline;white-space:pre;&quot; aria-level=&quot;1&quot;&gt;&lt;p dir=&quot;ltr&quot; style=&quot;line-height:1.38;margin-top:0pt;margin-bottom:12pt;&quot; role=&quot;presentation&quot;&gt;&lt;span style=&quot;font-size:11pt;font-family:Arial,sans-serif;color:#000000;background-color:transparent;font-weight:700;font-style:normal;font-variant:normal;text-decoration:none;vertical-align:baseline;white-space:pre;white-space:pre-wrap;&quot;&gt;Security Group (Standalone EC2):&lt;/span&gt;&lt;span style=&quot;font-size:11pt;font-family:Arial,sans-serif;color:#000000;background-color:transparent;font-weight:700;font-style:normal;font-variant:normal;text-decoration:none;vertical-align:baseline;white-space:pre;white-space:pre-wrap;&quot;&gt;&lt;br&gt;&lt;/span&gt;&lt;span style=&quot;font-size:11pt;font-family:Arial,sans-serif;color:#000000;background-color:transparent;font-weight:400;font-style:normal;font-variant:normal;text-decoration:none;vertical-align:baseline;white-space:pre;white-space:pre-wrap;&quot;&gt; Allows SSH (port 22) only from allowed IPs (for example, your public IP).&lt;/span&gt;&lt;span style=&quot;font-size:11pt;font-family:Arial,sans-serif;color:#000000;background-color:transparent;font-weight:400;font-style:normal;font-variant:normal;text-decoration:none;vertical-align:baseline;white-space:pre;white-space:pre-wrap;&quot;&gt;&lt;br&gt;&lt;/span&gt;&lt;span style=&quot;font-size:11pt;font-family:Arial,sans-serif;color:#000000;background-color:transparent;font-weight:400;font-style:normal;font-variant:normal;text-decoration:none;vertical-align:baseline;white-space:pre;white-space:pre-wrap;&quot;&gt; (Optional) Allows HTTP if you use it for testing.&lt;/span&gt;&lt;/p&gt;&lt;/li&gt;&lt;/ul&gt;&lt;br&gt;&lt;/b&gt;" style="text;whiteSpace=wrap;html=1;fillColor=default;" parent="1" vertex="1">
          <mxGeometry x="-20" y="600" width="560" height="310" as="geometry" />
        </mxCell>
        <mxCell id="3Z3hgqcBZ3D1bga7gspu-7" value="&lt;b style=&quot;font-weight:normal;&quot; id=&quot;docs-internal-guid-87dcad4f-7fff-058f-bdf7-a8e2093b8202&quot;&gt;&lt;h3 dir=&quot;ltr&quot; style=&quot;line-height:1.38;margin-top:14pt;margin-bottom:4pt;&quot;&gt;&lt;span style=&quot;font-size:13pt;font-family:Arial,sans-serif;color:#000000;background-color:transparent;font-weight:700;font-style:normal;font-variant:normal;text-decoration:none;vertical-align:baseline;white-space:pre;white-space:pre-wrap;&quot;&gt;IAM Roles&lt;/span&gt;&lt;/h3&gt;&lt;ul style=&quot;margin-top:0;margin-bottom:0;padding-inline-start:48px;&quot;&gt;&lt;li dir=&quot;ltr&quot; style=&quot;list-style-type:disc;font-size:11pt;font-family:Arial,sans-serif;color:#000000;background-color:transparent;font-weight:400;font-style:normal;font-variant:normal;text-decoration:none;vertical-align:baseline;white-space:pre;&quot; aria-level=&quot;1&quot;&gt;&lt;p dir=&quot;ltr&quot; style=&quot;line-height:1.38;margin-top:12pt;margin-bottom:0pt;&quot; role=&quot;presentation&quot;&gt;&lt;span style=&quot;font-size:11pt;font-family:Arial,sans-serif;color:#000000;background-color:transparent;font-weight:700;font-style:normal;font-variant:normal;text-decoration:none;vertical-align:baseline;white-space:pre;white-space:pre-wrap;&quot;&gt;IAM Role (ASG EC2 instances):&lt;/span&gt;&lt;span style=&quot;font-size:11pt;font-family:Arial,sans-serif;color:#000000;background-color:transparent;font-weight:700;font-style:normal;font-variant:normal;text-decoration:none;vertical-align:baseline;white-space:pre;white-space:pre-wrap;&quot;&gt;&lt;br&gt;&lt;/span&gt;&lt;span style=&quot;font-size:11pt;font-family:Arial,sans-serif;color:#000000;background-color:transparent;font-weight:400;font-style:normal;font-variant:normal;text-decoration:none;vertical-align:baseline;white-space:pre;white-space:pre-wrap;&quot;&gt; Allows reading objects from the S3 bucket &quot;images&quot;.&lt;/span&gt;&lt;span style=&quot;font-size:11pt;font-family:Arial,sans-serif;color:#000000;background-color:transparent;font-weight:400;font-style:normal;font-variant:normal;text-decoration:none;vertical-align:baseline;white-space:pre;white-space:pre-wrap;&quot;&gt;&lt;br&gt;&lt;br&gt;&lt;/span&gt;&lt;/p&gt;&lt;/li&gt;&lt;li dir=&quot;ltr&quot; style=&quot;list-style-type:disc;font-size:11pt;font-family:Arial,sans-serif;color:#000000;background-color:transparent;font-weight:400;font-style:normal;font-variant:normal;text-decoration:none;vertical-align:baseline;white-space:pre;&quot; aria-level=&quot;1&quot;&gt;&lt;p dir=&quot;ltr&quot; style=&quot;line-height:1.38;margin-top:0pt;margin-bottom:12pt;&quot; role=&quot;presentation&quot;&gt;&lt;span style=&quot;font-size:11pt;font-family:Arial,sans-serif;color:#000000;background-color:transparent;font-weight:700;font-style:normal;font-variant:normal;text-decoration:none;vertical-align:baseline;white-space:pre;white-space:pre-wrap;&quot;&gt;IAM Role (All EC2 instances, incl. ASG and standalone):&lt;/span&gt;&lt;span style=&quot;font-size:11pt;font-family:Arial,sans-serif;color:#000000;background-color:transparent;font-weight:700;font-style:normal;font-variant:normal;text-decoration:none;vertical-align:baseline;white-space:pre;white-space:pre-wrap;&quot;&gt;&lt;br&gt;&lt;/span&gt;&lt;span style=&quot;font-size:11pt;font-family:Arial,sans-serif;color:#000000;background-color:transparent;font-weight:400;font-style:normal;font-variant:normal;text-decoration:none;vertical-align:baseline;white-space:pre;white-space:pre-wrap;&quot;&gt; Allows writing logs to the S3 bucket &quot;logs&quot;.&lt;/span&gt;&lt;span style=&quot;font-size:11pt;font-family:Arial,sans-serif;color:#000000;background-color:transparent;font-weight:400;font-style:normal;font-variant:normal;text-decoration:none;vertical-align:baseline;white-space:pre;white-space:pre-wrap;&quot;&gt;&lt;br&gt;&lt;br&gt;&lt;/span&gt;&lt;/p&gt;&lt;/li&gt;&lt;/ul&gt;&lt;br&gt;&lt;/b&gt;" style="text;whiteSpace=wrap;html=1;fillColor=default;" parent="1" vertex="1">
          <mxGeometry x="70" y="145" width="470" height="230" as="geometry" />
        </mxCell>
      </root>
    </mxGraphModel>
  </diagram>
</mxfile>
